<mxfile host="app.diagrams.net" modified="2023-06-23T14:12:48.305Z" agent="Mozilla/5.0 (Windows NT 10.0; Win64; x64) AppleWebKit/537.36 (KHTML, like Gecko) Chrome/114.0.0.0 Safari/537.36 Edg/114.0.1823.51" etag="6_SvUZHbKJhuxzcTDNG_" version="21.5.0" type="github">
  <diagram name="第 1 页" id="IBatAMzsAOGHenqZDRj9">
    <mxGraphModel dx="2062" dy="728" grid="1" gridSize="10" guides="1" tooltips="1" connect="1" arrows="1" fold="1" page="1" pageScale="1" pageWidth="827" pageHeight="1169" math="0" shadow="0">
      <root>
        <mxCell id="0" />
        <mxCell id="1" parent="0" />
        <mxCell id="82e34eO4McR18qZeKcHr-4" style="edgeStyle=orthogonalEdgeStyle;rounded=0;orthogonalLoop=1;jettySize=auto;html=1;entryX=0.5;entryY=0;entryDx=0;entryDy=0;" edge="1" parent="1" source="82e34eO4McR18qZeKcHr-1" target="82e34eO4McR18qZeKcHr-2">
          <mxGeometry relative="1" as="geometry" />
        </mxCell>
        <mxCell id="82e34eO4McR18qZeKcHr-1" value="&lt;font style=&quot;font-size: 18px;&quot;&gt;用户&lt;/font&gt;" style="whiteSpace=wrap;html=1;" vertex="1" parent="1">
          <mxGeometry x="335" y="40" width="100" height="40" as="geometry" />
        </mxCell>
        <mxCell id="82e34eO4McR18qZeKcHr-8" style="edgeStyle=orthogonalEdgeStyle;rounded=0;orthogonalLoop=1;jettySize=auto;html=1;exitX=0.5;exitY=1;exitDx=0;exitDy=0;" edge="1" parent="1" source="82e34eO4McR18qZeKcHr-2" target="82e34eO4McR18qZeKcHr-3">
          <mxGeometry relative="1" as="geometry" />
        </mxCell>
        <mxCell id="82e34eO4McR18qZeKcHr-9" style="edgeStyle=orthogonalEdgeStyle;rounded=0;orthogonalLoop=1;jettySize=auto;html=1;" edge="1" parent="1" source="82e34eO4McR18qZeKcHr-2" target="82e34eO4McR18qZeKcHr-5">
          <mxGeometry relative="1" as="geometry" />
        </mxCell>
        <mxCell id="82e34eO4McR18qZeKcHr-10" style="edgeStyle=orthogonalEdgeStyle;rounded=0;orthogonalLoop=1;jettySize=auto;html=1;entryX=0.5;entryY=0;entryDx=0;entryDy=0;" edge="1" parent="1" source="82e34eO4McR18qZeKcHr-2" target="82e34eO4McR18qZeKcHr-6">
          <mxGeometry relative="1" as="geometry" />
        </mxCell>
        <mxCell id="82e34eO4McR18qZeKcHr-12" style="edgeStyle=orthogonalEdgeStyle;rounded=0;orthogonalLoop=1;jettySize=auto;html=1;entryX=0.5;entryY=0;entryDx=0;entryDy=0;" edge="1" parent="1" source="82e34eO4McR18qZeKcHr-2" target="82e34eO4McR18qZeKcHr-7">
          <mxGeometry relative="1" as="geometry" />
        </mxCell>
        <mxCell id="82e34eO4McR18qZeKcHr-33" style="edgeStyle=orthogonalEdgeStyle;rounded=0;orthogonalLoop=1;jettySize=auto;html=1;" edge="1" parent="1" source="82e34eO4McR18qZeKcHr-2" target="82e34eO4McR18qZeKcHr-32">
          <mxGeometry relative="1" as="geometry" />
        </mxCell>
        <mxCell id="82e34eO4McR18qZeKcHr-2" value="&lt;font style=&quot;font-size: 18px;&quot;&gt;登录&lt;/font&gt;" style="rounded=0;whiteSpace=wrap;html=1;" vertex="1" parent="1">
          <mxGeometry x="335" y="110" width="100" height="50" as="geometry" />
        </mxCell>
        <mxCell id="82e34eO4McR18qZeKcHr-31" style="edgeStyle=orthogonalEdgeStyle;rounded=0;orthogonalLoop=1;jettySize=auto;html=1;" edge="1" parent="1" source="82e34eO4McR18qZeKcHr-3" target="82e34eO4McR18qZeKcHr-29">
          <mxGeometry relative="1" as="geometry" />
        </mxCell>
        <mxCell id="82e34eO4McR18qZeKcHr-3" value="&lt;font style=&quot;font-size: 18px;&quot;&gt;查询当前课程安排&lt;/font&gt;" style="rounded=0;whiteSpace=wrap;html=1;" vertex="1" parent="1">
          <mxGeometry x="54" y="220" width="150" height="60" as="geometry" />
        </mxCell>
        <mxCell id="82e34eO4McR18qZeKcHr-5" value="&lt;font style=&quot;font-size: 18px;&quot;&gt;查询当前器材占用&lt;/font&gt;" style="rounded=0;whiteSpace=wrap;html=1;" vertex="1" parent="1">
          <mxGeometry x="244" y="220" width="150" height="60" as="geometry" />
        </mxCell>
        <mxCell id="82e34eO4McR18qZeKcHr-27" style="edgeStyle=orthogonalEdgeStyle;rounded=0;orthogonalLoop=1;jettySize=auto;html=1;entryX=0.5;entryY=0;entryDx=0;entryDy=0;" edge="1" parent="1" source="82e34eO4McR18qZeKcHr-6" target="82e34eO4McR18qZeKcHr-25">
          <mxGeometry relative="1" as="geometry" />
        </mxCell>
        <mxCell id="82e34eO4McR18qZeKcHr-6" value="&lt;font style=&quot;font-size: 18px;&quot;&gt;查询当前健身房是否拥挤&lt;/font&gt;" style="rounded=0;whiteSpace=wrap;html=1;" vertex="1" parent="1">
          <mxGeometry x="424" y="220" width="210" height="60" as="geometry" />
        </mxCell>
        <mxCell id="82e34eO4McR18qZeKcHr-19" style="edgeStyle=orthogonalEdgeStyle;rounded=0;orthogonalLoop=1;jettySize=auto;html=1;" edge="1" parent="1" source="82e34eO4McR18qZeKcHr-7" target="82e34eO4McR18qZeKcHr-13">
          <mxGeometry relative="1" as="geometry" />
        </mxCell>
        <mxCell id="82e34eO4McR18qZeKcHr-7" value="&lt;font style=&quot;font-size: 18px;&quot;&gt;预约体质检测&lt;/font&gt;" style="rounded=0;whiteSpace=wrap;html=1;" vertex="1" parent="1">
          <mxGeometry x="660" y="220" width="120" height="60" as="geometry" />
        </mxCell>
        <mxCell id="82e34eO4McR18qZeKcHr-20" style="edgeStyle=orthogonalEdgeStyle;rounded=0;orthogonalLoop=1;jettySize=auto;html=1;entryX=0.5;entryY=0;entryDx=0;entryDy=0;" edge="1" parent="1" source="82e34eO4McR18qZeKcHr-13" target="82e34eO4McR18qZeKcHr-14">
          <mxGeometry relative="1" as="geometry" />
        </mxCell>
        <mxCell id="82e34eO4McR18qZeKcHr-13" value="&lt;font style=&quot;font-size: 18px;&quot;&gt;输入:&lt;br&gt;教练ID&lt;br&gt;检测时间&lt;br&gt;&lt;/font&gt;" style="rounded=0;whiteSpace=wrap;html=1;" vertex="1" parent="1">
          <mxGeometry x="655" y="310" width="130" height="100" as="geometry" />
        </mxCell>
        <mxCell id="82e34eO4McR18qZeKcHr-21" style="edgeStyle=orthogonalEdgeStyle;rounded=0;orthogonalLoop=1;jettySize=auto;html=1;entryX=0.5;entryY=0;entryDx=0;entryDy=0;" edge="1" parent="1" source="82e34eO4McR18qZeKcHr-14" target="82e34eO4McR18qZeKcHr-15">
          <mxGeometry relative="1" as="geometry" />
        </mxCell>
        <mxCell id="82e34eO4McR18qZeKcHr-14" value="&lt;font style=&quot;font-size: 18px;&quot;&gt;Email或手机通知教练预约信息&lt;/font&gt;" style="rounded=0;whiteSpace=wrap;html=1;" vertex="1" parent="1">
          <mxGeometry x="657.5" y="430" width="125" height="90" as="geometry" />
        </mxCell>
        <mxCell id="82e34eO4McR18qZeKcHr-22" style="edgeStyle=orthogonalEdgeStyle;rounded=0;orthogonalLoop=1;jettySize=auto;html=1;entryX=0;entryY=0.5;entryDx=0;entryDy=0;" edge="1" parent="1" source="82e34eO4McR18qZeKcHr-15" target="82e34eO4McR18qZeKcHr-16">
          <mxGeometry relative="1" as="geometry" />
        </mxCell>
        <mxCell id="82e34eO4McR18qZeKcHr-15" value="&lt;font style=&quot;font-size: 18px;&quot;&gt;预约完成后&lt;/font&gt;" style="rounded=0;whiteSpace=wrap;html=1;" vertex="1" parent="1">
          <mxGeometry x="660" y="540" width="120" height="60" as="geometry" />
        </mxCell>
        <mxCell id="82e34eO4McR18qZeKcHr-23" style="edgeStyle=orthogonalEdgeStyle;rounded=0;orthogonalLoop=1;jettySize=auto;html=1;entryX=0.5;entryY=0;entryDx=0;entryDy=0;" edge="1" parent="1" source="82e34eO4McR18qZeKcHr-16" target="82e34eO4McR18qZeKcHr-17">
          <mxGeometry relative="1" as="geometry" />
        </mxCell>
        <mxCell id="82e34eO4McR18qZeKcHr-16" value="&lt;font style=&quot;font-size: 18px;&quot;&gt;到点开启记录功能&lt;/font&gt;" style="rounded=0;whiteSpace=wrap;html=1;" vertex="1" parent="1">
          <mxGeometry x="830" y="300" width="130" height="70" as="geometry" />
        </mxCell>
        <mxCell id="82e34eO4McR18qZeKcHr-24" style="edgeStyle=orthogonalEdgeStyle;rounded=0;orthogonalLoop=1;jettySize=auto;html=1;entryX=0.5;entryY=0;entryDx=0;entryDy=0;" edge="1" parent="1" source="82e34eO4McR18qZeKcHr-17" target="82e34eO4McR18qZeKcHr-18">
          <mxGeometry relative="1" as="geometry" />
        </mxCell>
        <mxCell id="82e34eO4McR18qZeKcHr-17" value="&lt;font style=&quot;font-size: 18px;&quot;&gt;教练端记录用户的体质信息&lt;/font&gt;" style="rounded=0;whiteSpace=wrap;html=1;" vertex="1" parent="1">
          <mxGeometry x="825" y="390" width="140" height="100" as="geometry" />
        </mxCell>
        <mxCell id="82e34eO4McR18qZeKcHr-18" value="&lt;font style=&quot;font-size: 18px;&quot;&gt;保存数据库&lt;/font&gt;" style="rounded=0;whiteSpace=wrap;html=1;" vertex="1" parent="1">
          <mxGeometry x="835" y="520" width="120" height="60" as="geometry" />
        </mxCell>
        <mxCell id="82e34eO4McR18qZeKcHr-28" style="edgeStyle=orthogonalEdgeStyle;rounded=0;orthogonalLoop=1;jettySize=auto;html=1;entryX=0.5;entryY=0;entryDx=0;entryDy=0;" edge="1" parent="1" source="82e34eO4McR18qZeKcHr-25" target="82e34eO4McR18qZeKcHr-26">
          <mxGeometry relative="1" as="geometry" />
        </mxCell>
        <mxCell id="82e34eO4McR18qZeKcHr-25" value="&lt;font style=&quot;font-size: 18px;&quot;&gt;查询健身房当前人数&lt;/font&gt;" style="rounded=0;whiteSpace=wrap;html=1;" vertex="1" parent="1">
          <mxGeometry x="424" y="340" width="210" height="50" as="geometry" />
        </mxCell>
        <mxCell id="82e34eO4McR18qZeKcHr-26" value="&lt;font style=&quot;font-size: 18px;&quot;&gt;人数&amp;gt;50人则为拥挤&lt;/font&gt;" style="rhombus;whiteSpace=wrap;html=1;" vertex="1" parent="1">
          <mxGeometry x="419" y="420" width="220" height="90" as="geometry" />
        </mxCell>
        <mxCell id="82e34eO4McR18qZeKcHr-29" value="&lt;font style=&quot;font-size: 18px;&quot;&gt;查询自己报名的课程&lt;/font&gt;" style="rounded=0;whiteSpace=wrap;html=1;" vertex="1" parent="1">
          <mxGeometry x="41" y="320" width="176" height="70" as="geometry" />
        </mxCell>
        <mxCell id="82e34eO4McR18qZeKcHr-35" style="edgeStyle=orthogonalEdgeStyle;rounded=0;orthogonalLoop=1;jettySize=auto;html=1;" edge="1" parent="1" source="82e34eO4McR18qZeKcHr-32" target="82e34eO4McR18qZeKcHr-34">
          <mxGeometry relative="1" as="geometry" />
        </mxCell>
        <mxCell id="82e34eO4McR18qZeKcHr-32" value="&lt;font style=&quot;font-size: 18px;&quot;&gt;签退&lt;/font&gt;" style="rounded=0;whiteSpace=wrap;html=1;" vertex="1" parent="1">
          <mxGeometry x="150" y="105" width="120" height="60" as="geometry" />
        </mxCell>
        <mxCell id="82e34eO4McR18qZeKcHr-34" value="&lt;font style=&quot;font-size: 18px;&quot;&gt;归还人数以及器材&lt;/font&gt;" style="rounded=0;whiteSpace=wrap;html=1;" vertex="1" parent="1">
          <mxGeometry x="-50" y="105" width="150" height="60" as="geometry" />
        </mxCell>
      </root>
    </mxGraphModel>
  </diagram>
</mxfile>
